PathFileType	4	(X/Y/Z)	/Users/niels/Desktop/University/Third Semester/Perception and Action/Exam/Gymnastics Motion Tracking/Code for Gym Tracking/Analyzed Data/Webcam_Backflip/id1_1_trajectory_Sports2D/id1_1_trajectory_Sports2D_px_person00.trc
DataRate	CameraRate	NumFrames	NumMarkers	Units	OrigDataRate	OrigDataStartFrame	OrigNumFrames
29.702970297029704	29.702970297029704	10	22	m	29.702970297029704	88	101
Frame#	Time	Hip			RHip			RKnee			RAnkle			RBigToe			RSmallToe			RHeel			LHip			LKnee			LAnkle			LBigToe			LSmallToe			LHeel			Neck			Head			Nose			RShoulder			RElbow			RWrist			LShoulder			LElbow			LWrist		
		X1	Y1	Z1	X2	Y2	Z2	X3	Y3	Z3	X4	Y4	Z4	X5	Y5	Z5	X6	Y6	Z6	X7	Y7	Z7	X8	Y8	Z8	X9	Y9	Z9	X10	Y10	Z10	X11	Y11	Z11	X12	Y12	Z12	X13	Y13	Z13	X14	Y14	Z14	X15	Y15	Z15	X16	Y16	Z16	X17	Y17	Z17	X18	Y18	Z18	X19	Y19	Z19	X20	Y20	Z20	X21	Y21	Z21	X22	Y22	Z22
88	2.9626666666666663	1.0070448280020932	-0.6553847910727443	0.0	0.9199326711885359	-0.6582983502463627	0.0	0.8694485889204286	-0.9329342783494008	0.0	0.9093077593095723	-1.0812919265563177	0.0	0.9423380117722723	-1.110549304517062	0.0	0.9027000898997302	-1.096937017621463	0.0	0.9384521553733152	-1.0845390830821642	0.0	1.0953385754344516	-0.6516786535245572	0.0	1.1194117495762217	-0.9189157413451565	0.0	1.0801383143246437	-1.0869273565227588	0.0	1.0351667900651544	-1.0957088210717723	0.0	1.112171330235254	-1.1117218751026783	0.0	1.0704726716022523	-1.070604187883226	0.0	1.0051707731235957	-0.22214856958278473	0.0	0.9920209683561273	-0.011331075805830456	0.0	1.0005838580852273	-0.13052494926130032	0.0	0.8591526641135981	-0.3046929753475857	0.0	0.8415062600455343	-0.5293869021854674	0.0	0.8198007310637023	-0.7290636123186082	0.0	1.155935589058761	-0.2964704469380755	0.0	1.1663854417011343	-0.5271415039234848	0.0	1.170250306047804	-0.7315391926951802	0.0
89	2.9963333333333333	0.999750218102139	-0.6583120990087049	0.0	0.909572374782442	-0.6616559374436407	0.0	0.8561557842146942	-0.950623893068832	0.0	0.9039386713666034	-1.0796696421669179	0.0	0.9427965718783347	-1.110450239932912	0.0	0.9031212590575931	-1.0969874042666434	0.0	0.939063529996405	-1.0845334270787874	0.0	1.0891412512048957	-0.6554078456180581	0.0	1.1071928496756547	-0.9330061153877992	0.0	1.078778435811826	-1.0892532194498346	0.0	1.032467848372865	-1.0958002990149582	0.0	1.110876589522467	-1.112610659836098	0.0	1.0690834690621558	-1.0710131771482598	0.0	1.0093171254377928	-0.2166521215917815	0.0	1.0027424738021402	-0.0063831242349106625	0.0	1.009488099239563	-0.11948466704257234	0.0	0.8559495125828505	-0.2963314398164712	0.0	0.8312378944623912	-0.5258554331927215	0.0	0.8065594069745139	-0.7316594965486778	0.0	1.1620284597126906	-0.2938122747695423	0.0	1.1652721921426186	-0.5294288959838556	0.0	1.163421014692494	-0.7404361106162698	0.0
90	3.03	0.9931257857683613	-0.6612193382816824	0.0	0.8998757342561936	-0.6646532637710983	0.0	0.8397029131553968	-0.9675270865059081	0.0	0.8963532140625416	-1.0781341138192533	0.0	0.9430223106134351	-1.1104080163902075	0.0	0.9033058771336386	-1.0970624574995258	0.0	0.9394178324552348	-1.084674044926351	0.0	1.0834557140692567	-0.6594851137706016	0.0	1.0960818853835734	-0.9503155700965488	0.0	1.0786711819924755	-1.0899964030089118	0.0	1.0323476120220898	-1.0958007747757637	0.0	1.1109261263120405	-1.1126968439317402	0.0	1.0690329543909298	-1.070995157882645	0.0	1.0153669529677518	-0.2104161978086987	0.0	1.016092797872087	-0.0022351301575369445	0.0	1.020160689179325	-0.10836455735951578	0.0	0.8544264126112804	-0.28689993023339555	0.0	0.8227129176079773	-0.520875877664321	0.0	0.7955385355843638	-0.7334635939816099	0.0	1.1701040842524997	-0.29166761332551827	0.0	1.1661967911658893	-0.5327737795825256	0.0	1.1581576421239528	-0.7500208488221256	0.0
91	3.0636666666666663	0.9872814659574851	-0.6639321663248818	0.0	0.8909036469480383	-0.6671940402254626	0.0	0.8197137394563858	-0.982786961162526	0.0	0.8857907215392012	-1.0770165281635622	0.0	0.9430910312537933	-1.1104006497200625	0.0	0.9033430327050781	-1.0971274421940491	0.0	0.9395704168512844	-1.0848371031886908	0.0	1.078849742317224	-0.6637581600340275	0.0	1.0881474119398717	-0.9696424319610418	0.0	1.079109952944582	-1.089885727462643	0.0	1.0333243115663782	-1.095763556323235	0.0	1.1115172168844434	-1.11242845894468	0.0	1.0695486820862257	-1.0708057308062489	0.0	1.0226822700835796	-0.2039916856345814	0.0	1.0309883341486084	0.0015581535886988749	0.0	1.0319035465885025	-0.09795970956384788	0.0	0.8542195239253078	-0.2773063340224127	0.0	0.8157226807165914	-0.5158416518871263	0.0	0.7857480984321539	-0.73557059696182	0.0	1.179621167143825	-0.2906046935115835	0.0	1.1685999127319968	-0.5381847527924665	0.0	1.154402285049567	-0.7613413964713992	0.0
92	3.0973333333333333	0.9822306227538435	-0.6666148000756371	0.0	0.8826170510708856	-0.6694315129409488	0.0	0.7972692501578609	-0.9961126532728544	0.0	0.8715245603227298	-1.076076278345383	0.0	0.9430763923209868	-1.110409659699936	0.0	0.9033092901860484	-1.0971707363402352	0.0	0.9395985612530393	-1.0849654283280412	0.0	1.075654647253353	-0.6683656360621892	0.0	1.084757084650924	-0.9898731326066105	0.0	1.0796557340487496	-1.0894524402486179	0.0	1.0344902936852327	-1.0957208199688355	0.0	1.1121723729320818	-1.112086123261566	0.0	1.0701590012333564	-1.070596657760114	0.0	1.0304481720700451	-0.19793558322737048	0.0	1.0460423176430549	0.005426090295837192	0.0	1.043824649137711	-0.08873587478918113	0.0	0.8548147753950068	-0.26820895061299915	0.0	0.8098831957901824	-0.5116890529020718	0.0	0.7759084379945662	-0.7385575270757907	0.0	1.1898365774248567	-0.2907130574306064	0.0	1.1719429465648978	-0.5458962717200467	0.0	1.152316486569603	-0.7751616338389117	0.0
93	3.131	0.9778877738492591	-0.6698077520927034	0.0	0.8749321301893613	-0.6718070135383257	0.0	0.7745076100920611	-1.0077912244651823	0.0	0.8531470441485388	-1.074443825941674	0.0	0.9430312923580751	-1.110422998895351	0.0	0.9032553853041552	-1.0971933949237724	0.0	0.9395677427286857	-1.0850447907476688	0.0	1.0738411717352119	-0.6737336508723594	0.0	1.0862178981569053	-1.0098201523589274	0.0	1.0800984257313133	-1.0890028886688743	0.0	1.0354198051262136	-1.0956873369943347	0.0	1.1126772002650582	-1.111805630085522	0.0	1.0706436907710217	-1.0704358871834037	0.0	1.037836649833985	-0.19255626392932673	0.0	1.0598563296340098	0.009638831126121484	0.0	1.0549776180533375	-0.0807312793269482	0.0	0.8554790205078863	-0.2598370251116933	0.0	0.8045855350068294	-0.5087168238452778	0.0	0.7650466989530167	-0.7423763577005938	0.0	1.1999246611516894	-0.291554006806093	0.0	1.1757959897389614	-0.5552483791466478	0.0	1.152270826009354	-0.791619655635541	0.0
94	3.1646666666666663	0.974123654958897	-0.6740267494710304	0.0	0.8677616966002115	-0.6747340152484383	0.0	0.7535401169633934	-1.0183050863433376	0.0	0.830932443939908	-1.0712858974898158	0.0	0.9429857870086594	-1.110434525990073	0.0	0.903207702089842	-1.0972014213577055	0.0	0.9395208997758361	-1.0850825276270526	0.0	1.0731004007704976	-0.680219240482223	0.0	1.0918547529176048	-1.027940959841393	0.0	1.0803791142381434	-1.088667921894347	0.0	1.0360008990172138	-1.0956667082521174	0.0	1.1129837584688471	-1.1116263486652136	0.0	1.0709457405988292	-1.0703384352778664	0.0	1.044140262561336	-0.18780588982531318	0.0	1.0714083387958346	0.014239344782791952	0.0	1.064485187489903	-0.07365699375924313	0.0	0.8553762038425062	-0.2520230690424966	0.0	0.7990294044810364	-0.5067564712693736	0.0	0.752917276909046	-0.7467014780241026	0.0	1.2091562775962992	-0.29240168427330177	0.0	1.1798784594601848	-0.5650184554321215	0.0	1.1546610229803045	-0.8100066102486668	0.0
95	3.1983333333333333	0.970771035776019	-0.6793635431284886	0.0	0.8609427089764833	-0.6783506347622866	0.0	0.735833549463745	-1.027954569082651	0.0	0.8058032278135527	-1.0663921945837807	0.0	0.9429523926659912	-1.1104421947837457	0.0	0.9031754531685514	-1.0972012419259076	0.0	0.9394800811990318	-1.085092899224342	0.0	1.0730001629936692	-0.6878297407158055	0.0	1.1003364307752728	-1.042583200575584	0.0	1.0805171918087597	-1.088470637214912	0.0	1.0362813740350507	-1.0956569518324701	0.0	1.1131257549220037	-1.1115372215864245	0.0	1.071090896965109	-1.0702934160217783	0.0	1.0488361460105249	-0.1835275886403901	0.0	1.0802416095301686	0.01891568510980502	0.0	1.0717524349092258	-0.06717271679128872	0.0	0.8537477495357182	-0.24448871957807464	0.0	0.7924100051884074	-0.505462708467976	0.0	0.739987697877747	-0.7513782173009225	0.0	1.2170033818184538	-0.2925554579191214	0.0	1.1840517762219434	-0.5740615763974077	0.0	1.1596171379337605	-0.8289265317714803	0.0
96	3.2319999999999998	0.967558252655684	-0.6854791337417089	0.0	0.8541695533673537	-0.6826790080509542	0.0	0.7223044856967475	-1.0368050757574316	0.0	0.778887283569688	-1.060096047495656	0.0	0.942933008265677	-1.1104462016632959	0.0	0.903158276984012	-1.0971977235242745	0.0	0.9394527632197612	-1.0850891759423043	0.0	1.0730666506626019	-0.6962549271113039	0.0	1.1101195139556312	-1.0526022976072746	0.0	1.0805591432239714	-1.0883834194190776	0.0	1.0363620752585545	-1.0956543160041599	0.0	1.1131615065163731	-1.1115093586623297	0.0	1.0711321213324276	-1.070282188149557	0.0	1.0516147619862704	-0.17971777963129232	0.0	1.0863103465295234	0.023085853953427434	0.0	1.0765975212460146	-0.061090651609449036	0.0	0.8500629367012665	-0.23719560520612945	0.0	0.7841434243049541	-0.5045497573494127	0.0	0.727074101265585	-0.7565622243081169	0.0	1.2231353062629635	-0.2915240612014928	0.0	1.1881830075439472	-0.5817051655101217	0.0	1.1668827893000615	-0.8467363518176668	0.0
97	3.2656666666666663	0.9641283696127461	-0.6918674601777753	0.0	0.8470957925826003	-0.6878734232771909	0.0	0.7135230646379276	-1.0447765141123735	0.0	0.7511053032832602	-1.05290234015169	0.0	0.9429246374000781	-1.1104476157844607	0.0	0.903151957236234	-1.0971937761329684	0.0	0.9394383891431916	-1.0850806389378806	0.0	1.072835902942975	-0.7050439420781558	0.0	1.119892660722398	-1.0578272025360826	0.0	1.080550094740007	-1.0883651699159862	0.0	1.0363385356856019	-1.0956553307331183	0.0	1.113143754060238	-1.1115143033567885	0.0	1.0711193197381854	-1.0702879387627924	0.0	1.052370733864831	-0.17646405370029933	0.0	1.08976721700888	0.026458010395983046	0.0	1.0790387389287788	-0.055415855761936465	0.0	0.8441132402385115	-0.23038131229356512	0.0	0.773976515968846	-0.5039043517081224	0.0	0.7149124746874885	-0.7625495077459707	0.0	1.2274533643009466	-0.2891587800317341	0.0	1.1920593431874436	-0.5876315420234454	0.0	1.1759724368498872	-0.8619600822119468	0.0
